<svg width="205" height="32" viewBox="0 0 205 32" fill="none" xmlns="http://www.w3.org/2000/svg">
<path d="M0.863636 16.1364V13.2727C2.19697 13.2727 3.12121 13.0152 3.63636 12.5C4.15152 11.9773 4.40909 11.1591 4.40909 10.0455V8.27273C4.40909 6.63636 4.66288 5.37121 5.17045 4.47727C5.68561 3.57576 6.375 2.93182 7.23864 2.54545C8.10985 2.15909 9.0947 1.92803 10.1932 1.85227C11.2917 1.76894 12.4242 1.72727 13.5909 1.72727V6.27273C12.6818 6.27273 12.0076 6.375 11.5682 6.57954C11.1288 6.78409 10.8409 7.0947 10.7045 7.51136C10.5682 7.92803 10.5 8.45455 10.5 9.09091V11.5909C10.5 12.1591 10.3712 12.7159 10.1136 13.2614C9.86364 13.7992 9.39773 14.2841 8.71591 14.7159C8.03409 15.1477 7.06061 15.4924 5.79545 15.75C4.5303 16.0076 2.88636 16.1364 0.863636 16.1364ZM13.5909 30.2727C12.4242 30.2727 11.2917 30.2311 10.1932 30.1477C9.0947 30.072 8.10985 29.8409 7.23864 29.4545C6.375 29.0682 5.68561 28.4242 5.17045 27.5227C4.66288 26.6288 4.40909 25.3636 4.40909 23.7273V21.9545C4.40909 20.8409 4.15152 20.0265 3.63636 19.5114C3.12121 18.9886 2.19697 18.7273 0.863636 18.7273V15.8636C2.88636 15.8636 4.5303 15.9924 5.79545 16.25C7.06061 16.5076 8.03409 16.8523 8.71591 17.2841C9.39773 17.7159 9.86364 18.2045 10.1136 18.75C10.3712 19.2879 10.5 19.8409 10.5 20.4091V22.9091C10.5 23.5379 10.5682 24.0644 10.7045 24.4886C10.8409 24.9053 11.1288 25.2159 11.5682 25.4205C12.0076 25.625 12.6818 25.7273 13.5909 25.7273V30.2727ZM0.863636 18.7273V13.2727H5.86364V18.7273H0.863636ZM26.0938 7.54545V12.0909H14.5938V7.54545H26.0938ZM16.821 3.36364H23.0938V19.3864C23.0938 19.6288 23.1354 19.8333 23.2188 20C23.3021 20.1591 23.4309 20.2803 23.6051 20.3636C23.7794 20.4394 24.0028 20.4773 24.2756 20.4773C24.465 20.4773 24.6847 20.4545 24.9347 20.4091C25.1922 20.3636 25.3816 20.3258 25.5028 20.2955L26.4119 24.7045C26.1316 24.7879 25.7301 24.8902 25.2074 25.0114C24.6922 25.1326 24.0786 25.2121 23.3665 25.25C21.9271 25.3258 20.7188 25.178 19.7415 24.8068C18.7642 24.428 18.0294 23.8333 17.5369 23.0227C17.0445 22.2121 16.8059 21.197 16.821 19.9773V3.36364ZM35.3011 15.1818V25H29.0284V1.72727H35.0739V10.8636H35.2557C35.6496 9.75 36.3049 8.88258 37.2216 8.26136C38.1383 7.63258 39.2405 7.31818 40.5284 7.31818C41.7633 7.31818 42.8352 7.59848 43.7443 8.15909C44.661 8.7197 45.3693 9.49242 45.8693 10.4773C46.3769 11.4621 46.6269 12.5909 46.6193 13.8636V25H40.3466V15.1818C40.3542 14.3182 40.1383 13.6402 39.6989 13.1477C39.267 12.6553 38.6496 12.4091 37.8466 12.4091C37.339 12.4091 36.892 12.5227 36.5057 12.75C36.1269 12.9697 35.8314 13.2879 35.6193 13.7045C35.4148 14.1136 35.3087 14.6061 35.3011 15.1818ZM54.5795 25.2727C53.4659 25.2727 52.4811 25.0909 51.625 24.7273C50.7765 24.3561 50.1098 23.7955 49.625 23.0455C49.1402 22.2955 48.8977 21.3409 48.8977 20.1818C48.8977 19.2273 49.0606 18.4129 49.3864 17.7386C49.7121 17.0568 50.1667 16.5 50.75 16.0682C51.3333 15.6364 52.0114 15.3068 52.7841 15.0795C53.5644 14.8523 54.4053 14.7045 55.3068 14.6364C56.2841 14.5606 57.0682 14.4697 57.6591 14.3636C58.2576 14.25 58.6894 14.0947 58.9545 13.8977C59.2197 13.6932 59.3523 13.4242 59.3523 13.0909V13.0455C59.3523 12.5909 59.178 12.2424 58.8295 12C58.4811 11.7576 58.0341 11.6364 57.4886 11.6364C56.8902 11.6364 56.4015 11.7689 56.0227 12.0341C55.6515 12.2917 55.428 12.6894 55.3523 13.2273H49.5795C49.6553 12.1667 49.9924 11.1894 50.5909 10.2955C51.197 9.39394 52.0795 8.67424 53.2386 8.13636C54.3977 7.59091 55.8447 7.31818 57.5795 7.31818C58.8295 7.31818 59.9508 7.46591 60.9432 7.76136C61.9356 8.04924 62.7803 8.45455 63.4773 8.97727C64.1742 9.49242 64.7045 10.0985 65.0682 10.7955C65.4394 11.4848 65.625 12.2348 65.625 13.0455V25H59.7614V22.5455H59.625C59.2765 23.197 58.8523 23.7235 58.3523 24.125C57.8598 24.5265 57.2955 24.8182 56.6591 25C56.0303 25.1818 55.3371 25.2727 54.5795 25.2727ZM56.625 21.3182C57.1023 21.3182 57.5492 21.2197 57.9659 21.0227C58.3902 20.8258 58.7348 20.5417 59 20.1705C59.2652 19.7992 59.3977 19.3485 59.3977 18.8182V17.3636C59.2311 17.4318 59.053 17.4962 58.8636 17.5568C58.6818 17.6174 58.4848 17.6742 58.2727 17.7273C58.0682 17.7803 57.8485 17.8295 57.6136 17.875C57.3864 17.9205 57.1477 17.9621 56.8977 18C56.4129 18.0758 56.0152 18.2008 55.7045 18.375C55.4015 18.5417 55.1742 18.75 55.0227 19C54.8788 19.2424 54.8068 19.5152 54.8068 19.8182C54.8068 20.303 54.9773 20.6742 55.3182 20.9318C55.6591 21.1894 56.0947 21.3182 56.625 21.3182ZM71.8153 31.5455C71.0956 31.5455 70.41 31.4886 69.7585 31.375C69.107 31.2689 68.535 31.1212 68.0426 30.9318L69.4062 26.4773C69.9214 26.6591 70.3911 26.7765 70.8153 26.8295C71.2472 26.8826 71.6146 26.8523 71.9176 26.7386C72.2282 26.625 72.4517 26.4091 72.5881 26.0909L72.7244 25.7727L66.5881 7.54545H73.1335L75.9517 19.6364H76.1335L78.9972 7.54545H85.5881L79.2244 26.4545C78.9062 27.4167 78.4441 28.2803 77.8381 29.0455C77.2396 29.8182 76.4517 30.428 75.4744 30.875C74.4972 31.322 73.2775 31.5455 71.8153 31.5455ZM95.2045 25.3182C93.3409 25.3182 91.7348 24.9621 90.3864 24.25C89.0455 23.5303 88.0114 22.5 87.2841 21.1591C86.5644 19.8106 86.2045 18.197 86.2045 16.3182C86.2045 14.5152 86.5682 12.9394 87.2955 11.5909C88.0227 10.2424 89.0492 9.19318 90.375 8.44318C91.7008 7.69318 93.2652 7.31818 95.0682 7.31818C96.3864 7.31818 97.5795 7.52273 98.6477 7.93182C99.7159 8.34091 100.629 8.93561 101.386 9.71591C102.144 10.4886 102.727 11.428 103.136 12.5341C103.545 13.6402 103.75 14.8864 103.75 16.2727V17.7273H88.1591V14.2727H97.9773C97.9697 13.7727 97.8409 13.3333 97.5909 12.9545C97.3485 12.5682 97.0189 12.2689 96.6023 12.0568C96.1932 11.8371 95.7273 11.7273 95.2045 11.7273C94.697 11.7273 94.2311 11.8371 93.8068 12.0568C93.3826 12.2689 93.0417 12.5644 92.7841 12.9432C92.5341 13.322 92.4015 13.7652 92.3864 14.2727V18C92.3864 18.5606 92.5038 19.0606 92.7386 19.5C92.9735 19.9394 93.3106 20.2841 93.75 20.5341C94.1894 20.7841 94.7197 20.9091 95.3409 20.9091C95.7727 20.9091 96.1667 20.8485 96.5227 20.7273C96.8864 20.6061 97.197 20.4318 97.4545 20.2045C97.7121 19.9697 97.9015 19.6894 98.0227 19.3636H103.75C103.553 20.5758 103.087 21.6288 102.352 22.5227C101.617 23.4091 100.644 24.0985 99.4318 24.5909C98.2273 25.0758 96.8182 25.3182 95.2045 25.3182ZM111.946 20.8636L111.991 13.4091H112.81L117.037 7.54545H124.082L116.991 16.6818H115.219L111.946 20.8636ZM106.31 25V1.72727H112.582V25H106.31ZM117.082 25L113.082 18.0909L117.173 13.6364L124.264 25H117.082ZM133.406 25.3182C131.512 25.3182 129.891 24.9432 128.543 24.1932C127.194 23.4356 126.16 22.3826 125.44 21.0341C124.721 19.678 124.361 18.1061 124.361 16.3182C124.361 14.5303 124.721 12.9621 125.44 11.6136C126.16 10.2576 127.194 9.20454 128.543 8.45454C129.891 7.69697 131.512 7.31818 133.406 7.31818C135.3 7.31818 136.921 7.69697 138.27 8.45454C139.618 9.20454 140.652 10.2576 141.372 11.6136C142.092 12.9621 142.452 14.5303 142.452 16.3182C142.452 18.1061 142.092 19.678 141.372 21.0341C140.652 22.3826 139.618 23.4356 138.27 24.1932C136.921 24.9432 135.3 25.3182 133.406 25.3182ZM133.452 20.6818C133.982 20.6818 134.44 20.5038 134.827 20.1477C135.213 19.7917 135.512 19.2841 135.724 18.625C135.937 17.9659 136.043 17.1818 136.043 16.2727C136.043 15.3561 135.937 14.572 135.724 13.9205C135.512 13.2614 135.213 12.7538 134.827 12.3977C134.44 12.0417 133.982 11.8636 133.452 11.8636C132.891 11.8636 132.41 12.0417 132.009 12.3977C131.607 12.7538 131.3 13.2614 131.088 13.9205C130.876 14.572 130.77 15.3561 130.77 16.2727C130.77 17.1818 130.876 17.9659 131.088 18.625C131.3 19.2841 131.607 19.7917 132.009 20.1477C132.41 20.5038 132.891 20.6818 133.452 20.6818ZM162.057 7.54545L156.193 25H148.92L143.057 7.54545H149.648L152.466 19.0909H152.648L155.466 7.54545H162.057ZM163.841 25V7.54545H170.114V25H163.841ZM166.977 5.72727C166.129 5.72727 165.402 5.44697 164.795 4.88636C164.189 4.32576 163.886 3.65151 163.886 2.86364C163.886 2.07576 164.189 1.40151 164.795 0.840908C165.402 0.280303 166.129 0 166.977 0C167.833 0 168.561 0.280303 169.159 0.840908C169.765 1.40151 170.068 2.07576 170.068 2.86364C170.068 3.65151 169.765 4.32576 169.159 4.88636C168.561 5.44697 167.833 5.72727 166.977 5.72727ZM181.719 25.3182C179.825 25.3182 178.204 24.9432 176.855 24.1932C175.507 23.4356 174.473 22.3826 173.753 21.0341C173.033 19.678 172.673 18.1061 172.673 16.3182C172.673 14.5303 173.033 12.9621 173.753 11.6136C174.473 10.2576 175.507 9.20454 176.855 8.45454C178.204 7.69697 179.825 7.31818 181.719 7.31818C183.431 7.31818 184.912 7.62879 186.162 8.25C187.42 8.86364 188.393 9.73485 189.082 10.8636C189.772 11.9848 190.12 13.303 190.128 14.8182H184.31C184.226 13.9015 183.961 13.2045 183.514 12.7273C183.075 12.2424 182.507 12 181.81 12C181.264 12 180.787 12.1591 180.378 12.4773C179.969 12.7879 179.651 13.2614 179.423 13.8977C179.196 14.5265 179.082 15.3182 179.082 16.2727C179.082 17.2273 179.196 18.0227 179.423 18.6591C179.651 19.2879 179.969 19.7614 180.378 20.0795C180.787 20.3902 181.264 20.5455 181.81 20.5455C182.272 20.5455 182.681 20.4394 183.037 20.2273C183.393 20.0076 183.681 19.6894 183.901 19.2727C184.128 18.8485 184.264 18.3333 184.31 17.7273H190.128C190.105 19.2652 189.753 20.6061 189.071 21.75C188.389 22.8864 187.423 23.7652 186.173 24.3864C184.931 25.0076 183.446 25.3182 181.719 25.3182ZM204.352 15.8636V18.7273C203.027 18.7273 202.102 18.9886 201.58 19.5114C201.064 20.0265 200.807 20.8409 200.807 21.9545V23.7273C200.807 25.3636 200.549 26.6288 200.034 27.5227C199.527 28.4242 198.837 29.0682 197.966 29.4545C197.102 29.8409 196.121 30.072 195.023 30.1477C193.932 30.2311 192.799 30.2727 191.625 30.2727V25.7273C192.534 25.7273 193.208 25.625 193.648 25.4205C194.087 25.2159 194.375 24.9053 194.511 24.4886C194.648 24.0644 194.716 23.5379 194.716 22.9091V20.4091C194.716 19.8409 194.841 19.2879 195.091 18.75C195.348 18.2045 195.818 17.7159 196.5 17.2841C197.182 16.8523 198.155 16.5076 199.42 16.25C200.686 15.9924 202.33 15.8636 204.352 15.8636ZM191.625 1.72727C192.799 1.72727 193.932 1.76894 195.023 1.85227C196.121 1.92803 197.102 2.15909 197.966 2.54545C198.837 2.93182 199.527 3.57576 200.034 4.47727C200.549 5.37121 200.807 6.63636 200.807 8.27273V10.0455C200.807 11.1591 201.064 11.9773 201.58 12.5C202.102 13.0152 203.027 13.2727 204.352 13.2727V16.1364C202.33 16.1364 200.686 16.0076 199.42 15.75C198.155 15.4924 197.182 15.1477 196.5 14.7159C195.818 14.2841 195.348 13.7992 195.091 13.2614C194.841 12.7159 194.716 12.1591 194.716 11.5909V9.09091C194.716 8.45455 194.648 7.92803 194.511 7.51136C194.375 7.0947 194.087 6.78409 193.648 6.57954C193.208 6.375 192.534 6.27273 191.625 6.27273V1.72727ZM204.352 13.2727V18.7273H199.352V13.2727H204.352Z" fill="white" fill-opacity="0.7"/>
</svg>
